<?xml version="1.0" standalone="no"?>
<!DOCTYPE svg PUBLIC "-//W3C//DTD SVG 20010904//EN"
 "http://www.w3.org/TR/2001/REC-SVG-20010904/DTD/svg10.dtd">
<svg version="1.0" xmlns="http://www.w3.org/2000/svg"
 width="1920.000000pt" height="1920.000000pt" viewBox="0 0 1920.000000 1920.000000"
 preserveAspectRatio="xMidYMid meet">

<g transform="translate(0.000000,1920.000000) scale(0.100000,-0.100000)"
fill="#000000" stroke="none">
<path d="M6245 14723 c-220 -30 -438 -139 -599 -299 -129 -130 -215 -274 -273
-461 l-28 -88 -5 -3875 -5 -3875 -27 -75 c-77 -220 -57 -489 53 -708 130 -256
372 -448 656 -519 63 -16 292 -17 3338 -20 3103 -3 3291 -2 3327 21 5 3 13
576 8 576 -3 0 -14 -7 -24 -15 -11 -8 -39 -15 -63 -15 l-43 0 -2 -212 -3 -213
-3185 -3 c-2306 -2 -3207 0 -3264 8 -278 40 -535 240 -644 502 -47 113 -66
223 -59 348 7 129 25 198 81 315 80 167 205 294 371 375 119 59 194 78 332 87
101 6 102 6 88 27 -13 18 -15 491 -15 3642 l0 3621 21 27 c27 34 86 37 115 5
19 -21 19 -95 19 -3649 0 -3553 0 -3628 -19 -3649 l-19 -21 3089 -2 3089 -3 3
-212 2 -213 43 0 c24 0 52 -7 63 -15 10 -8 21 -15 24 -15 3 0 4 126 2 280 l-3
280 -29 22 -30 22 0 4003 0 4003 -3177 -1 c-1748 -1 -3191 -4 -3208 -6z m5133
-3250 l-3 -1588 -2135 0 -2135 0 -3 1138 -2 1137 -45 0 c-56 0 -95 33 -95 78
0 48 29 74 88 80 l52 5 0 362 c0 199 3 365 7 368 3 4 966 7 2140 7 l2133 0 -2
-1587z m-228 -2330 c26 -33 21 -79 -11 -105 -20 -17 -125 -18 -1897 -18
l-1876 0 -23 22 c-29 27 -31 80 -3 108 20 20 33 20 1904 20 l1885 0 21 -27z
m-27 -484 c24 -11 47 -47 47 -74 0 -8 -10 -26 -22 -40 l-23 -26 -1885 1 -1885
0 -17 21 c-27 33 -23 83 8 108 l27 21 1863 0 c1344 0 1870 -3 1887 -11z m24
-523 c29 -35 26 -80 -8 -108 -20 -17 -125 -18 -1894 -18 l-1872 0 -27 21 c-18
14 -26 30 -26 53 0 46 21 68 71 76 24 4 874 7 1887 6 l1844 -1 25 -29z"/>
<path d="M13592 12703 c-11 -10 -131 -251 -266 -536 l-246 -517 0 -3333 c0
-3693 -5 -3404 65 -3466 19 -16 51 -35 72 -40 62 -17 738 -14 797 3 66 20 110
57 140 118 l26 52 0 3340 0 3339 -179 376 c-99 207 -208 437 -244 512 -78 164
-113 196 -165 152z m306 -768 l152 -320 0 -212 c0 -116 -3 -218 -6 -227 -5
-14 -51 -16 -415 -16 l-409 0 0 230 0 229 44 93 c78 166 232 489 301 633 l67
140 57 -115 c31 -63 125 -259 209 -435z m142 -3270 l0 -2355 -410 0 -410 0 0
2348 c0 1292 3 2352 7 2355 3 4 188 7 410 7 l403 0 0 -2355z m7 -2617 l1 -118
-404 0 c-222 0 -407 0 -411 0 -5 0 -9 54 -11 120 l-3 120 413 -2 413 -3 2
-117z m1 -628 c3 -391 0 -424 -45 -459 -25 -20 -38 -21 -389 -21 -316 0 -365
2 -378 16 -14 13 -16 65 -16 418 0 221 3 406 7 409 4 4 189 6 412 5 l406 -3 3
-365z"/>
<path d="M12660 6004 c-14 -8 -42 -14 -62 -14 l-38 0 0 -235 0 -235 46 0 c25
0 54 -5 64 -10 19 -10 19 -2 22 246 2 141 1 257 -2 258 -3 2 -16 -3 -30 -10z"/>
</g>
</svg>
